<svg xmlns="http://www.w3.org/2000/svg" viewBox="0 0 91.44 82.54"><g id="Layer_2" data-name="Layer 2"><g id="Layer_1-2" data-name="Layer 1"><path d="M58.51,45.4,62.68,47c-1,2.77-1.82,5.55-3,8.15a45.67,45.67,0,0,1-24,23.66A45.21,45.21,0,0,1,20,82.47a45.58,45.58,0,0,1-19.16-3c-.74-.29-.87-.59-.76-1.38A46.08,46.08,0,0,1,26.65,42.39a5.62,5.62,0,0,1,.6-.22c.23,1.28.48,2.52.64,3.76a1.09,1.09,0,0,1-.52.85A41.92,41.92,0,0,0,10.84,61.5,43.8,43.8,0,0,0,5,75.19c-.21.84,0,1.15.84,1.39A41.89,41.89,0,0,0,56.93,50.37C57.49,48.8,57.94,47.21,58.51,45.4Z"/><path d="M46.49,73.38l3.17-2.74c1.56.92,3.1,1.91,4.71,2.75A40.92,40.92,0,0,0,70.14,78a43.42,43.42,0,0,0,15.31-1.44c1.31-.36,1.35-.36,1-1.65C82.09,58.7,71.85,48.26,55.61,43.81A33.78,33.78,0,0,0,44,42.65c-3.17.25-6.3.93-9.44,1.43-.29,0-.57.13-1,.24l-.69-4.41c2.45-.44,4.85-1,7.27-1.28a45.24,45.24,0,0,1,30.7,7A44.91,44.91,0,0,1,91.12,76c.09.45.16.92.22,1.38.22,1.72.21,1.72-1.47,2.33a46.1,46.1,0,0,1-13.55,2.71A45.61,45.61,0,0,1,47,73.9l-.39-.3C46.58,73.56,46.56,73.49,46.49,73.38Z"/><path d="M45.86,5.31C37,13.85,32.18,23.92,32.07,36s4.47,22.21,13,30.79l-3.33,2.74c-.28-.26-.52-.47-.74-.69A45.14,45.14,0,0,1,28.3,43.46C26.05,28,30.55,14.66,41.48,3.51c1.11-1.14,2.39-2.12,3.58-3.19a.83.83,0,0,1,1.28,0,45.33,45.33,0,0,1,16.81,29,43.17,43.17,0,0,1,.31,11.54c-1.31-.44-2.59-.83-3.84-1.33-.19-.08-.29-.59-.3-.91-.09-2.2,0-4.4-.23-6.58A40,40,0,0,0,51.28,11.7C49.65,9.5,47.73,7.5,45.86,5.31Z"/></g></g></svg>